<svg id="Layer_1" data-name="Layer 1" xmlns="http://www.w3.org/2000/svg" viewBox="0 0 686.21 392.11"><defs><style>.cls-1{fill:#fff;}.cls-2{stroke:#000;stroke-miterlimit:10;}</style></defs><path class="cls-1" d="M1293.15,432.83C1307,493,1261.63,559.36,1181,611.62a519.55,519.55,0,0,1-75.8,40.28,646.42,646.42,0,0,1-112,36.49c-188.13,43.17-358.87-1.24-381.36-99.22S723.66,376.78,911.79,333.61,1270.66,334.85,1293.15,432.83Z" transform="translate(-609.4 -317.1)"/><path d="M963,323.93l-.18,0q-16.85,2.51-34,6h0l-.17,0h0l-.52.11h0l-.16,0h0l-.68.13h0l-.14,0h0l-.15,0h0l-.34.07h0l-.14,0h0l-.13,0h0l-.33.07h0l-.13,0h0l-.13,0h0l-.15,0h0l-.17,0h0l-.13,0H925l-.11,0-.06,0-.1,0h-.06l-.12,0h-.07l-.12,0h-.07l-.09,0-.08,0H924l-.08,0-.08,0h-.08l-.14,0-.08,0-.08,0h-.09l-.07,0-.08,0-.09,0h-.07l-.08,0-.17,0h-.05l-.09,0-.08,0-.08,0h-.07l-.09,0-.07,0-.34.07h0l-.11,0h0l-.11,0h0l-.12,0h0l-.28.06h0l-.12,0h0l-.11,0h0l-.12,0h0l-.57.12h0l-1.65.36a1.26,1.26,0,0,0-.95,1.49,1.25,1.25,0,0,0,1.49.95c14.64-3.2,29.47-5.93,44.09-8.11a1.25,1.25,0,0,0-.19-2.49Zm-87.7,19.18a1.41,1.41,0,0,0-.35.05l-4.45,1.31h0l-.34.1h0l-.16.05h0l-.16.05h0l-.33.1h0l-.14,0h0l-.32.09h0l-.14,0h0l-.32.1h0l-.13,0,0,0-.12,0,0,0-.15,0h0l-.14,0h0l-.12,0h0l-.15,0h0l-.13,0,0,0-.11,0-.05,0-.11,0-.05,0-.14,0-.06,0-.1,0-.06,0-.1,0-.06,0-.14.05h-.06l-.09,0-.07,0-.08,0-.07,0-.1,0-.1,0-.1,0-.07,0-.07,0-.08,0-.08,0-.11,0-.1,0-.08,0-.06,0-.09,0-.06,0-.32.09,0,0-.11,0h0l-.36.11h0l-.11,0h0l-.11,0h0l-.36.11h0l-.11,0h0l-.35.11h0l-.12,0h0l-.12,0h0l-.24.08h0l-.11,0h0l-.12,0h0l-.37.12h0l-.11,0h0l-.5.15h0l-.49.15h0l-.5.16h0c-3,1-6,1.93-9,2.92h0l-.51.17h0l-.5.16h0l-.11,0h0l-.37.12h0l-.12,0h0l-.36.12h0l-.12,0h0l-.11,0h0l-.23.08h0l-.11,0,0,0-.1,0h0l-.32.11,0,0-.1,0,0,0-.3.1-.06,0-.08,0-.07,0-.08,0-.06,0-.16.05,0,0-.09,0-.06,0-.08,0-.07,0-.08,0-.13,0-.06,0-.09,0-.07,0-.08,0-.07,0-.13,0-.06,0-.1,0-.05,0-.09,0-.06,0-.14,0h0l-.15.05h0l-.12,0,0,0-.12,0h0l-.16.05h0l-.14.05h0l-.14.05h0l-.32.11h0l-.15.05h0l-.32.11h0l-.15.06h0l-.33.11h0l-.15.06h0q-5.26,1.83-10.44,3.73a1.25,1.25,0,0,0,.43,2.42,1.06,1.06,0,0,0,.43-.08c13.83-5.07,28.16-9.76,42.6-13.94a1.25,1.25,0,0,0-.35-2.45Zm-84.23,31a1.23,1.23,0,0,0-.52.12q-12,5.44-23.38,11.28h0l-.31.16h0l-.3.15h0l-.29.15h0l-.13.07h0l-.15.07h0l-.14.07h0l-.13.07h0l-.14.08h0l-.1.06,0,0-.13.07,0,0-.09,0,0,0-.13.06,0,0-.11.05,0,0-.12.06h0l-.13.06,0,0-.09.05,0,0-.12.07-.06,0-.08,0-.05,0-.12.06-.06,0-.08,0-.06,0-.09.05-.06,0-.11.06-.06,0-.07,0-.06,0-.12.06-.06,0-.08,0-.06,0-.08,0-.1,0-.07,0-.07,0-.06,0-.11.05-.07,0-.08,0-.06,0-.06,0-.08,0-.12.06-.05,0-.07,0-.06,0-.13.07,0,0-.08,0,0,0-.12.06-.07,0-.07,0-.06,0-.08,0-.05,0-.13.07,0,0-.08.05h0l-.16.09,0,0-.09,0,0,0-.28.16h0l-.28.15,0,0-.09,0,0,0-.16.08,0,0-.08.05,0,0-.28.15h0l-.28.15,0,0-.09,0,0,0-.16.09h0l-.08.05,0,0-.15.08,0,0-.08,0,0,0-.08,0,0,0-.14.07,0,0-.08,0,0,0-.13.07-.06,0-.07,0,0,0-.11.05-.08,0-.07,0-.06,0-.07,0-.06,0-.12.06-.06,0-.08.05-.05,0-.1.05-.08.05-.06,0-.08,0-.06,0-.11.06-.07,0-.07,0-.06,0-.09.05-.08,0-.08.05-.06,0-.07,0-.06,0-.12.06,0,0-.09,0,0,0-.12.07h0l-.1.06,0,0-.27.15,0,0-.12.07h0l-.13.08h0l-.12.07h0l-.14.08h0l-.14.08h0l-.29.15h0l-.28.16h0l-.14.08h0c-.8.44-1.6.88-2.39,1.33a1.25,1.25,0,0,0,.61,2.34,1.21,1.21,0,0,0,.61-.16c12.69-7.1,26.14-13.89,40-20.18a1.25,1.25,0,0,0-.52-2.39Zm-78.13,44a1.22,1.22,0,0,0-.71.22q-15.74,11-29.38,22.58h0l-.31.26h0l-.07.06h0l-.07.06h0l-.15.13h0l-.06.06h0l-.06.05,0,0-.15.12v0l-.06.05,0,0,0,0,0,0,0,0,0,0,0,0-.08.07,0,0,0,0,0,0,0,0,0,0,0,0,0,0-.17.14h0l0,.05h0l0,0,0,0-.05.05h0l-.26.22h0q-1.92,1.67-3.81,3.35a1.26,1.26,0,0,0-.1,1.77,1.27,1.27,0,0,0,.94.41,1.22,1.22,0,0,0,.83-.32,371.1,371.1,0,0,1,35.12-27.6,1.25,1.25,0,0,0-.71-2.28Zm-66.21,60a1.24,1.24,0,0,0-1,.46Q640.51,485,636,491.61h0l-.05.07h0l0,.07h0l0,.06h0l-.05.06h0l0,.06v0l-.05.06h0l0,.06h0l0,.06,0,0,0,.05,0,0,0,.06h0l0,.06,0,0,0,.05v0l0,.05v0l0,.06v0l0,.05,0,0,0,.05,0,0,0,0,0,0,0,0,0,0,0,0,0,0,0,0,0,0,0,0,0,0,0,0,0,0,0,0,0,0,0,0,0,0,0,0,0,0,0,0,0,0,0,0,0,0,0,0,0,0,0,0,0,.05,0,0,0,0,0,0,0,0,0,0,0,.05,0,0,0,.06,0,0,0,.05v0l0,.05v0l0,.06v0l0,0v0l0,.05v0l0,.06v0l0,.06h0l0,.06h0l0,.07h0l0,.07h0l0,.06h0l0,.06v0l-.05.07h0l0,.07h0a171.85,171.85,0,0,0-12,21.27,1.25,1.25,0,1,0,2.27,1.07,186.84,186.84,0,0,1,23.8-37.36,1.24,1.24,0,0,0-.19-1.75,1.23,1.23,0,0,0-.78-.28ZM611,558.34a1.25,1.25,0,0,0-1.25,1.15,98.6,98.6,0,0,0,1.93,28.68h0l.06.28h0l0,.07h0l0,.14h0l0,.07h0v.06h0l0,.14h0V589l0,.05v.08h0l0,.06v.53l0,.11v.52l0,.11v1.09h0l0,0h0l0,.11h0v.41l0,0h0v0h0l0,.11h0v.05h0v0h0v.05h0v.27h0v0h0l0,.11h0l0,.05v.06h0v.05h0v.1h0l0,0h0v0h0l0,.06h0l.06.22h0l0,0h0l0,.05h0v0h0l0,.05h0v0h0c0,.15.09.3.13.45s0,0,0,0l0,0h0l0,.06h0a94.33,94.33,0,0,0,3.12,9,1.24,1.24,0,0,0,1.16.79,1.26,1.26,0,0,0,1.16-1.72,94.75,94.75,0,0,1-6.51-43,1.24,1.24,0,0,0-1.15-1.34Zm31.36,80.13a1.25,1.25,0,0,0-.89,2.13c.66.66,1.32,1.3,2,1.94h0l.25.24h0l0,0h0l.11.11h0l.12.11h0l0,0h0l.07.06h0l0,0h0l.11.1v0l.11.1,0,0,0,0h0l.06.06h0l0,0h0l.07.06h0l0,0,0,0,0,0h0l.08.07v0l0,0h0l.06.06h0l0,0,0,0,0,.05,0,0,0,0,0,0,0,0h0l.07.06h0l0,0h0l.05,0,0,0,0,0,0,0,0,0,0,0,0,0,0,0,0,0,0,0,0,0,0,0,0,0,0,0,0,0,0,0,0,0,0,0,0,0,.05,0,0,0,0,0,0,0,.05,0h0l0,0,0,0,0,0,0,0,0,0,0,0,0,0,0,0,0,0h0l0,0h0l0,0h0l.05,0v0l0,0h0l.05.05h0l0,0h0l.05.05h0l0,0v0l.11.1h0l.05,0h0l0,.05h0l0,0,0,0,0,0,0,0,0,0h0l0,0h0l.06,0h0l0,0h0l.06,0h0l0,0v0l.06,0h0l0,0h0l.12.1h0l.05.05h0l.07.06h0l.06.05h0l.13.1h0l.06,0h0l.06,0h0l.06.05h0l.12.11h0l.12.1h0l.12.1h0l.06,0h0l.13.11h0l.12.11h0l.06,0h0l.07.05h0l.06,0h0l.12.11h0l.13.11h0l.19.16h0l.12.11h0l.32.27h0l.13.11h0a163.33,163.33,0,0,0,14.76,11h0l1,.68h0l.15.09h0l.15.09h0l.07,0h0l.14.09h0l.14.1h0l.07,0h0l.15.1h0l.15.09h0l.14.09h0l.06,0h0l.07,0h0l.07.05h0l.08,0h0l.07,0h0l.14.09h0l.07,0h0l.07,0h0l.07.05h0l.15.09h0l.14.09h0l.06,0h0l.07,0h0l.07,0h0l.15.1h0l.07,0h0l.07,0h0l.06,0h0l.15.08h0l.14.09h0l.06,0h0l.07,0h0l.05,0,0,0,.07,0h0l.07,0h0l.05,0,0,0,.06,0h0l0,0h0l.06,0h0l0,0h0l.06,0h0l.06,0h0l.06,0h0l.07,0,0,0,.06,0h0l.07,0h0l.06,0h0l.14.08h0l.06,0h0l.07,0h0l.05,0,0,0,.07,0h0l0,0h0l.06,0h0l.07.05h0l.06,0h0l.07,0h0l0,0h0l.06,0h0l0,0,0,0,.06,0h0l.07,0h0l0,0h0l.07,0h0l.05,0h0l.06,0h0l.05,0,0,0,0,0h0l.06,0h0l0,0,0,0,.06,0,0,0,0,0h0l.05,0,0,0,0,0,0,0,.05,0,0,0,.07,0h0l0,0,0,0,.06,0h0l0,0h0l0,0,0,0,.05,0,0,0,0,0,0,0,.06,0,0,0,0,0,0,0,0,0,0,0,0,0,0,0,0,0,.05,0,0,0,0,0,.05,0,0,0,.07,0h0l0,0,0,0,.05,0,0,0,0,0,0,0,0,0,0,0,0,0,0,0h0l0,0h0l.08.05,0,0,0,0,0,0,.08,0h0l0,0,0,0,.06,0,0,0,0,0,0,0,0,0h0l.08,0h0l0,0,0,0,.06,0,0,0,0,0,0,0,.07,0h0l0,0h0l0,0,.06,0,0,0,0,0,0,0,0,0,.06,0h0l0,0h0l.1.06h0l.05,0h0l0,0h0l.1.06h0l0,0h0l.1.06h0l.05,0h0l.15.09h0l.15.09h0l0,0h0l.17.09h0l.16.09h0l0,0a1.21,1.21,0,0,0,.61.16,1.25,1.25,0,0,0,.61-2.34,162.05,162.05,0,0,1-35.54-26.24,1.21,1.21,0,0,0-.88-.37Zm76.79,44.34a1.25,1.25,0,0,0-.4,2.44q2.22.75,4.47,1.47h0l.15,0h0l.14,0h0l.14,0h0l.13,0,0,0,.13,0,0,0,.13,0h0l.12,0h0l.12,0h0l.11,0h.06l.11,0,.06,0,.1,0,.06,0,.1,0,.06,0,.1,0,.06,0,.11,0,.06,0,.1,0,.06,0,.09,0,.09,0,.07,0,.09,0,.06,0,.1,0,.08,0,.11,0h0l.13,0h0l.12,0h0a347.74,347.74,0,0,0,35.55,8.85l.23,0a1.25,1.25,0,0,0,.24-2.48,337.89,337.89,0,0,1-43.17-11.32,1.46,1.46,0,0,0-.4-.07Zm87.74,17.6a1.25,1.25,0,0,0-.12,2.5c14.5,1.29,29.52,2,45,2a1.25,1.25,0,0,0,0-2.5c-15.23,0-30.28-.69-44.72-2Zm134.32-4.72-.18,0c-14.89,2.2-29.87,3.88-44.54,5a1.25,1.25,0,0,0,.1,2.49h.08q7.26-.56,14.6-1.28h.17l.36,0h1.34l.11,0h.74l.51-.06h0q9.74-1,19.63-2.37h0l.51-.07h0l.15,0h0l.16,0h0l.17,0h0l.13,0h.06l.11,0h.16l.11,0h.41l.09,0h0l.21,0h.33l4.53-.65a1.25,1.25,0,0,0-.19-2.49Zm87.72-19.06a1.32,1.32,0,0,0-.34,0c-11.77,3.4-23.84,6.52-35.89,9.28-2.51.58-5.06,1.15-7.58,1.7a1.25,1.25,0,0,0,.27,2.47l.26,0,.23-.05h0l.21,0h0l.14,0,.09,0,.15,0,.12,0,.07,0,.2,0h.05l.4-.09h0l.24-.05h0l.2,0h.07l.11,0,.11,0,.13,0,.12,0h.08l.19-.05h.05l.44-.1h0l4-.91h0l.21,0h0l.21-.05h0l.44-.1h0q12-2.76,23.64-5.91h0l.23-.06h0l.45-.12h0l.22-.06h0l.22-.06h0l.21-.06h0l.21-.06h0l.2-.05h0l.21,0h0l.21-.06h0l.21-.06h0l.2-.06h0l.18,0h0l.19-.05.06,0,.18,0h.06l.15,0,.05,0,.18,0,.07,0,.16,0,.09,0,.12,0,.08,0,.16,0,.09,0,.12,0,.12,0,.1,0,.1,0,.15,0,.1,0,.09,0,.16,0,.09,0,.1,0,.12,0,.14,0h.07l.19-.06h.06l.12,0h0l.21-.06h0l.24-.07h0l.13,0h0l.24-.07h0l.41-.12h0l.27-.08h0l3.31-.94a1.25,1.25,0,0,0,.85-1.55,1.23,1.23,0,0,0-1.2-.9Zm84.27-30.86a1.34,1.34,0,0,0-.51.11c-2.77,1.25-5.6,2.51-8.41,3.73-10.72,4.64-21.85,9.08-33.08,13.18a1.25,1.25,0,0,0,.43,2.42,1.29,1.29,0,0,0,.43-.07q6.4-2.34,12.68-4.79h0l1-.41h0l.38-.15h0l.37-.15h0l.21-.08,0,0,.35-.14h0l.22-.09h0l.12,0,0,0,.18-.07.06,0,.11,0,0,0,.18-.08.06,0,.15-.06.09,0,.1,0,.07,0,.15-.06.08,0,.1,0,.1,0,.12,0,.09,0,.09,0,.14-.06.09,0,.08,0,.13,0,.1,0,.09,0,.1,0,.13-.05.08,0,.09,0,.14-.05.09,0,.09,0,.12,0,.11,0,.08,0,.11,0,.12,0,.09,0,.08,0,.14-.06.09,0,.09,0,.11,0,.12,0,.08,0,.09,0,.14,0,.09,0,.08,0,.14-.06.09,0,.09,0,.09,0,.14-.06.08,0,.11,0,.1,0,.11,0,.08,0,.15-.06.07,0,.1,0,.08,0,.15-.06.07,0,.11-.05.1,0,.12,0,.07,0,.15-.06.07,0,.11,0,.07,0,.15-.06.07,0,.13,0,.07,0,.13-.06.08,0,.12,0,.1,0,.1,0,.08,0,.15-.07.07,0,.11,0,.08,0,.14-.06.06,0,.15-.06.07,0,.12-.05.06,0,.16-.07.06,0,.12,0,.06,0,.16-.07.06,0,.14-.06.08,0,.11,0,.08,0,.15-.06.06,0,.12,0,.06,0,.15-.06.07,0,.12-.05.1,0,.11,0,.07,0,.16-.06.06,0,.11-.05.07,0,.15-.07.07,0,.13,0,.07,0,.13-.05.07,0,.15-.07.06,0,.12,0,.06,0,.16-.07.06,0,.13-.06.06,0,.15-.07,0,0,.17-.07,0,0,.14-.06.05,0,.16-.07.06,0,.13-.06,0,0,.16-.06.06,0,.16-.07h0l.15-.07,0,0,.16-.07.05,0,.14-.06,0,0,.17-.07,0,0,.17-.07h0l.16-.07,0,0,.16-.07.05,0,.14-.06,0,0,.17-.07,0,0,.17-.08h0l.17-.07,0,0,.17-.08h0l.15-.07h0l.17-.08h0l.18-.08h0l.14-.07.06,0,.09,0,.07,0,.08,0,.07,0,.06,0,.34-.15h0l.11,0h0l.12,0h0c2.44-1.06,4.85-2.14,7.25-3.22a1.25,1.25,0,0,0-.52-2.39Zm78.22-43.83a1.27,1.27,0,0,0-.72.22c-3.57,2.48-7.26,5-11,7.37-8.61,5.57-17.7,11-27,16.24a1.25,1.25,0,0,0,.61,2.34,1.2,1.2,0,0,0,.6-.16q4.42-2.46,8.74-5h0l.86-.5h0l.41-.25h0l.1-.05v0l.29-.16,0,0,.09-.05,0,0,.08,0,0,0,.17-.1h0l.07-.05.05,0,.07,0,.06,0,.09,0,.09-.06.06,0,.06,0,.07,0,.06,0,.06,0,.11-.07.06,0,.07,0,.06,0,.07,0,.05,0,.12-.07,0,0,.11-.06,0,0,.09-.06,0,0,.25-.15,0,0,.1-.06,0,0,.11-.07h0l.13-.08h0l.11-.06,0,0,.13-.08h0l.14-.08h0l.13-.08h0l.13-.08h0l.28-.16h0q6.11-3.68,12-7.44h0l.38-.25h0l.11-.07,0,0,.25-.16,0,0,.1-.06,0,0,.13-.08h0l.1-.06,0,0,0,0,.07,0h0q5.49-3.57,10.78-7.23a1.25,1.25,0,0,0-.71-2.28Zm66.37-59.82a1.25,1.25,0,0,0-1,.46,276.77,276.77,0,0,1-30.93,32.06,1.25,1.25,0,0,0,.83,2.18,1.26,1.26,0,0,0,.83-.31q2.94-2.62,5.76-5.26h0l.19-.18h0l.06,0h0l.18-.18h0l.19-.18h0l0,0,0,0,0,0h0l.11-.11h0l0,0,0,0,.16-.15,0,0,0,0,0,0,.07-.07,0,0,0,0,0,0,0,0,0,0,.06-.06,0,0,0,0,0,0,0,0,.07-.07,0,0,0,0,0,0,0,0,0,0,.07-.07,0,0,0-.05,0,0,.07-.06h0l.08-.08,0,0,.06-.06,0,0,.15-.15,0,0,.06-.06h0l.16-.16,0,0,.08-.07h0l.09-.08h0l.08-.08h0l.17-.16h0l.08-.08h0l.17-.17h0l.09-.08h0l.17-.16h0l.17-.17h0l.08-.08h0a263.33,263.33,0,0,0,21.28-23.13,1.25,1.25,0,0,0-1-2ZM1294,462a1.24,1.24,0,0,0-1.24,1.14c-1.17,13.77-5.21,28-12,42.19a1.25,1.25,0,1,0,2.25,1.08c6.84-14.33,11-28.77,12.23-43a1.26,1.26,0,0,0-1.14-1.36Zm-30.7-80.37a1.25,1.25,0,0,0-.88,2.13,107.51,107.51,0,0,1,24.21,36.35,1.25,1.25,0,0,0,2.33-.89A109.6,109.6,0,0,0,1264.13,382a1.21,1.21,0,0,0-.85-.34ZM1186.71,337a1.25,1.25,0,0,0-.4,2.43,243.66,243.66,0,0,1,40.7,17.94,1.21,1.21,0,0,0,.61.16,1.25,1.25,0,0,0,.67-2.3A244.51,244.51,0,0,0,1187.05,337a1,1,0,0,0-.34-.05ZM1099,319.16a1.25,1.25,0,0,0-.11,2.5,428,428,0,0,1,44.27,6.3l.24,0a1.25,1.25,0,0,0,.29-2.46,430.47,430.47,0,0,0-44.6-6.35Zm-46.53-2.06h-12.08q-16.17.34-32.87,1.64a1.25,1.25,0,0,0,.1,2.49h.09c15.08-1.17,30.14-1.76,44.76-1.76h1.7a1.24,1.24,0,0,0,1.25-1.24,1.26,1.26,0,0,0-1.24-1.26h-1.71Z" transform="translate(-609.4 -317.1)"/><path class="cls-1" d="M1152.73,664.19a519.3,519.3,0,0,1-82.89,22.3,43,43,0,0,1,82.89-22.3Z" transform="translate(-609.4 -317.1)"/><path class="cls-2" d="M1118.2,661.78l-25.39,36.83a23,23,0,0,1-19.65,10.1,23.81,23.81,0,0,0,2.56-3.11l25.38-36.83a23.39,23.39,0,0,0-14.83-36.24l-43.92-8.47a25.35,25.35,0,0,0-4-.44,23.08,23.08,0,0,1,21.1-6.55l43.92,8.47A23.39,23.39,0,0,1,1118.2,661.78Z" transform="translate(-609.4 -317.1)"/></svg>